<svg width="34" height="34" viewBox="0 0 34 34" fill="none" xmlns="http://www.w3.org/2000/svg">
<rect width="34" height="34" rx="7" fill="#0F4A79"/>
<path d="M17 5.86905C10.878 5.86905 5.86908 10.878 5.86908 17C5.86908 23.122 10.878 28.131 17 28.131C23.1221 28.131 28.131 23.122 28.131 17C28.131 10.878 23.1221 5.86905 17 5.86905ZM17 25.9048C12.0913 25.9048 8.09527 21.9088 8.09527 17C8.09527 12.0913 12.0913 8.09524 17 8.09524C21.9088 8.09524 25.9048 12.0913 25.9048 17C25.9048 21.9088 21.9088 25.9048 17 25.9048ZM22.1091 12.0801L14.7738 19.4154L11.8909 16.5436L10.3215 18.1131L14.7738 22.5655L23.6786 13.6607L22.1091 12.0801Z" fill="white"/>
</svg>
